<?xml version="1.0" standalone="no"?>
<!DOCTYPE svg PUBLIC "-//W3C//DTD SVG 20010904//EN"
 "http://www.w3.org/TR/2001/REC-SVG-20010904/DTD/svg10.dtd">
<svg version="1.0" xmlns="http://www.w3.org/2000/svg"
 width="13px" height="13px" viewBox="0 0 500.000000 500.000000"
 preserveAspectRatio="xMidYMid meet">

<g transform="translate(0.000000,500.000000) scale(0.100000,-0.100000)"
fill="#000000" stroke="none">
<path d="M1092 4398 c-20 -20 -15 -76 7 -88 11 -6 87 -10 175 -10 143 0 156
-1 166 -19 14 -27 14 -3345 0 -3372 -10 -18 -23 -19 -179 -19 -187 0 -181 2
-181 -68 0 -20 4 -43 8 -50 7 -10 220 -12 1083 -10 l1074 3 75 23 c115 35 266
112 358 182 271 205 421 551 383 886 -30 266 -120 455 -297 624 -179 171 -395
270 -622 287 -46 3 -79 9 -75 13 4 4 33 15 63 25 269 84 490 340 545 629 72
376 -140 766 -499 915 -145 60 -156 61 -1160 61 -696 0 -915 -3 -924 -12z
m1553 -123 c117 -33 213 -92 311 -189 74 -74 99 -106 132 -176 58 -119 76
-193 76 -325 0 -323 -193 -583 -509 -686 -64 -20 -93 -23 -339 -27 -218 -3
-270 -1 -277 10 -13 20 -11 1375 2 1400 10 19 17 20 277 15 212 -3 279 -8 327
-22z m185 -1663 c417 -115 683 -482 657 -906 -13 -210 -92 -388 -241 -545
-109 -114 -253 -200 -408 -243 -65 -18 -110 -21 -424 -25 -318 -4 -352 -3
-367 12 -16 15 -17 86 -17 860 0 770 1 845 16 860 15 15 51 16 363 12 311 -3
354 -6 421 -25z"/>
</g>
</svg>
