<svg version="1.1" id="Layer_1" xmlns="http://www.w3.org/2000/svg" xmlns:xlink="http://www.w3.org/1999/xlink" x="0px" y="0px"
	 width="13px" height="13px" viewBox="0 0 1024 1024" enable-background="new 0 0 1024 1024" xml:space="preserve">
<path fill="#000000" opacity="1.000000" stroke="none" 
	d="
M620.432617,542.452332 
	C653.573792,560.859985 674.188110,588.338989 679.637512,625.441345 
	C689.361206,691.644897 644.411072,745.234985 584.810913,754.946716 
	C579.416260,755.825806 573.852295,755.940002 568.366577,755.944214 
	C496.384796,755.999939 424.402924,755.981628 352.421082,755.924133 
	C349.918793,755.922119 346.367310,757.087219 345.397766,753.830383 
	C344.325409,750.228027 344.256622,746.175354 345.692535,742.539490 
	C346.478821,740.548462 348.839539,741.013123 350.621124,741.004089 
	C360.118500,740.956116 369.616241,740.982727 379.113800,740.964172 
	C385.914673,740.950806 385.972260,740.906921 385.973236,733.898132 
	C385.990784,610.762512 386.002350,487.626862 386.009003,364.491211 
	C386.009399,357.161163 385.985046,357.163361 378.449249,357.157715 
	C369.451538,357.151001 360.449036,356.963135 351.458069,357.204742 
	C346.897644,357.327271 344.800812,356.102448 344.824524,351.083069 
	C344.847992,346.111359 346.916107,344.937622 351.465515,344.944733 
	C411.783508,345.038849 472.101715,344.994141 532.419861,344.990051 
	C546.733337,344.989075 560.954163,344.856323 574.905457,349.452515 
	C611.530457,361.518494 641.026489,398.359619 638.355347,444.461304 
	C636.087036,483.610687 606.631531,518.859253 566.927917,528.368408 
	C565.975769,528.596436 565.031555,528.857971 564.083191,529.307922 
	C583.891724,528.870728 602.557007,533.165894 620.432617,542.452332 
M593.741516,705.237488 
	C611.506409,683.597168 618.455566,658.573792 615.463806,631.068787 
	C610.129272,582.024780 568.008728,544.681702 518.270264,544.299744 
	C498.276398,544.146179 478.278687,544.426514 458.286377,544.195312 
	C453.414398,544.138977 452.089478,545.745056 452.099243,550.485779 
	C452.226044,611.970398 452.209900,673.455505 452.091370,734.940247 
	C452.082794,739.390442 453.266541,741.078125 457.988770,741.024475 
	C477.814636,740.799500 497.644562,740.931885 517.473022,740.936035 
	C548.181580,740.942444 573.319885,728.926575 593.741516,705.237488 
M512.702393,517.238464 
	C557.152100,509.333771 585.870972,468.873932 578.736755,424.207581 
	C573.224976,389.699036 544.262756,361.893799 509.844086,358.104980 
	C492.570251,356.203461 475.230194,357.724121 457.934631,357.125305 
	C453.140045,356.959290 452.014954,358.880524 452.094330,363.273560 
	C452.316956,375.594177 452.165894,387.921478 452.166809,400.246155 
	C452.169617,437.719788 452.177887,475.193420 452.172333,512.667053 
	C452.171906,515.720703 451.713806,518.777283 456.476868,518.669678 
	C474.936646,518.252319 493.437378,519.758606 512.702393,517.238464 
z"/>
</svg>